<svg xmlns="http://www.w3.org/2000/svg" xmlns:xlink="http://www.w3.org/1999/xlink" viewBox="-5600 -500 11200 5100">
  <rect x="-5600" y="-500" width="11200" height="5100" rx="600" fill="#DA291C"/>
  <defs>
    <path id="b" d="m-4777 2076h2919l-566-1007h553l-342-889h4426l-342 889h553l-566 1007h2919l-964 1265H1149a1300 942 0 0 1-2298 0h-2664z"/>
  </defs>
  <use xlink:href="#b" stroke="#fff" stroke-width="360"/>
  <g fill="#fff" stroke="#DA291C" stroke-width="50">
    <use xlink:href="#b" stroke-width="120"/>
    <path fill="#DA291C" stroke="none" d="m-4308 2308h2649l449 801h-2488zm5967 0h2649l-610 801H1210zM-1875 412h3750L876 3016a938 938 0 0 1-1752 0z"/>
    <path d="m-84 1607c-360 0-944 156-944 570 0 519 732 647 1111 647 228 0 581-101 879-389l-101-97c-264 249-507 294-743 294-267 0-738-173-738-443 0-289 422-415 680-415 331 0 645 70 794 278l120-70-264-292c-27 46-65 49-90 49-50 0-115-23-139-32-141-50-394-100-565-100z"/>
    <path id="t" d="m557 2945v-151c-183 10-262-68-262-257V1510h344c127 0 225 84 297 178l95-93-213-282H-584l-214 282 95 93c72-94 170-178 297-178h345v1027c0 189-80 267-262 257v151z"/>
    <use xlink:href="#t" x="-433" y="-407"/>
  </g>
</svg>
